# xmcd CD database file
#
# Track frame offsets:
#	182
#	25622
#	53400
#	79975
#	115642
#	145132
#	202872
#	230342
#	266462
#
# Disc length: 4377 seconds
#
# Revision: 3
# Processed by: cddbd v1.5.2PL0 Copyright (c) Steve Scherf et al.
# Submitted via: CDex 2.23
#
DISCID=65111709
DTITLE=Mansfield Howard Kaiser - Into The Night
DYEAR=1995
DGENRE=Christian
TTITLE0=Million Dollar Feelin'
TTITLE1=Lost Ship
TTITLE2=Quee Of My Heart
TTITLE3=Stand By Me
TTITLE4=Where Would I Be?
TTITLE5=It's Only You
TTITLE6=The Mission
TTITLE7=If I Leave This World Tomorrow
TTITLE8=I Found Out
EXTD=YEAR: 1995
EXTT0=
EXTT1=
EXTT2=
EXTT3=
EXTT4=
EXTT5=
EXTT6=
EXTT7=
EXTT8=
PLAYORDER=
